<?xml version="1.0" standalone="no"?>
<!DOCTYPE svg PUBLIC "-//W3C//DTD SVG 20010904//EN"
 "http://www.w3.org/TR/2001/REC-SVG-20010904/DTD/svg10.dtd">
<svg version="1.0" xmlns="http://www.w3.org/2000/svg"
 width="108.000000pt" height="108.000000pt" viewBox="0 0 108.000000 108.000000"
 preserveAspectRatio="xMidYMid meet">
<metadata>
Created by potrace 1.11, written by Peter Selinger 2001-2013
</metadata>
<g transform="translate(0.000000,108.000000) scale(0.100000,-0.100000)"
fill="#000000" stroke="none">
<path d="M430 973 c-113 -66 -150 -88 -210 -121 -25 -14 -63 -37 -85 -51 l-40
-27 -3 -250 c-2 -229 -1 -252 15 -266 18 -16 367 -221 409 -240 23 -11 20 -12
159 67 220 126 291 168 297 178 4 7 8 123 8 258 0 222 -2 247 -17 261 -24 21
-417 248 -429 248 -5 -1 -52 -26 -104 -57z m303 -104 c106 -62 194 -114 197
-116 6 -5 8 -443 2 -460 -2 -7 -29 -26 -60 -44 -77 -44 -101 -57 -215 -123
-53 -31 -104 -59 -112 -62 -8 -4 -57 19 -110 50 -53 31 -100 56 -106 56 -5 0
-9 5 -9 10 0 6 -4 10 -9 10 -21 0 -170 94 -173 109 -6 23 -3 449 2 454 3 2 82
48 175 102 94 54 179 104 190 111 11 7 24 13 28 13 5 1 95 -49 200 -110z"/>
<path d="M328 719 l-68 -40 -1 -62 c-1 -96 -1 -199 0 -228 1 -23 12 -32 82
-68 45 -22 83 -41 85 -41 2 0 4 41 4 90 0 50 2 90 4 90 3 0 27 -14 55 -31 l49
-31 46 31 c24 17 47 31 50 31 6 0 7 -35 6 -133 0 -16 2 -32 5 -37 3 -5 42 9
85 32 68 35 80 45 80 67 1 33 1 262 0 278 0 7 -32 31 -71 53 -80 47 -59 53
-168 -42 -17 -16 -34 -28 -37 -28 -3 0 -18 11 -32 25 -50 45 -97 85 -102 85
-3 0 -35 -18 -72 -41z"/>
</g>
</svg>
